<?xml version="1.0" encoding="UTF-8"?>
<svg version="1.1" xmlns="http://www.w3.org/2000/svg" width="500" height="300">
<path d="M0 0 C165 0 330 0 500 0 C500 99 500 198 500 300 C335 300 170 300 0 300 C0 201 0 102 0 0 Z " fill="#FEFEFE" transform="translate(0,0)"/>
<path d="M0 0 C1 1 1 1 1.0625 4.5625 C1.041875 5.696875 1.02125 6.83125 1 8 C1.66 8 2.32 8 3 8 C3.309375 9.2065625 3.309375 9.2065625 3.625 10.4375 C4.305625 11.7059375 4.305625 11.7059375 5 13 C8.05272465 13.89830839 8.05272465 13.89830839 11 14 C11.495 18.95 11.495 18.95 12 24 C13.485 24.495 13.485 24.495 15 25 C15.5775 25.680625 16.155 26.36125 16.75 27.0625 C18.93702091 29.31465334 18.93702091 29.31465334 22.375 29.375 C25.87353326 29.01308277 28.73324562 28.27483098 32 27 C32.598125 28.134375 33.19625 29.26875 33.8125 30.4375 C35.65337056 33.09535634 36.4519459 33.89518965 39.67578125 34.51171875 C41.60797166 34.58593534 43.54382476 34.59730939 45.4765625 34.5390625 C48 35 48 35 49.703125 37.0625 C51.20138845 40.45615696 52.19939762 43.78191361 53.125 47.375 C53.62386719 49.27378906 53.62386719 49.27378906 54.1328125 51.2109375 C55 55 55 55 55.3125 58.77734375 C55.68134257 62.11059097 55.68134257 62.11059097 58.1796875 63.85546875 C59.51386719 64.51482422 59.51386719 64.51482422 60.875 65.1875 C65.21501014 67.38281125 68.03825605 69.20982424 69.671875 73.94921875 C70.77270862 80.82942885 70.50284609 86.83982239 67 93 C63.76469873 96.84738529 60.70683466 99.22383598 56 101 C54.41658454 100.96158091 52.83325346 100.91959869 51.25 100.875 C47.3303931 101.13904537 46.23231994 101.753611 43.484375 104.66796875 C42.19675959 106.36817762 40.9712934 108.10342395 39.74658203 109.84936523 C33.18031859 119.18501226 24.40105405 124.56116633 14 129 C13.0615625 129.41507813 12.123125 129.83015625 11.15625 130.2578125 C-1.68421285 135.08988141 -18.94914813 135.40100337 -31.64453125 130.125 C-32.81048828 129.568125 -32.81048828 129.568125 -34 129 C-34.70511719 128.71125 -35.41023438 128.4225 -36.13671875 128.125 C-47.45078948 123.14591976 -58.18705737 112.84232246 -64 102 C-64 101.34 -64 100.68 -64 100 C-64.66 100 -65.32 100 -66 100 C-66.71558513 98.33030137 -67.43030038 96.66022458 -68.140625 94.98828125 C-68.91887689 93.18768937 -69.73839283 91.40507149 -70.5625 89.625 C-76.54016949 74.55087695 -75.68708649 55.78770808 -69.3359375 40.96484375 C-61.78467806 24.47773339 -49.90799998 11.21578787 -33 4 C-22.07218083 0.24064341 -11.51944391 -0.84356072 0 0 Z " fill="#F9F9F9" transform="translate(113,85)"/>
<path d="M0 0 C1 1 1 1 1.0625 4.5625 C1.041875 5.696875 1.02125 6.83125 1 8 C1.66 8 2.32 8 3 8 C3.309375 9.2065625 3.309375 9.2065625 3.625 10.4375 C4.305625 11.7059375 4.305625 11.7059375 5 13 C8.05272465 13.89830839 8.05272465 13.89830839 11 14 C11.495 18.95 11.495 18.95 12 24 C13.485 24.495 13.485 24.495 15 25 C15.5775 25.680625 16.155 26.36125 16.75 27.0625 C18.93702091 29.31465334 18.93702091 29.31465334 22.375 29.375 C25.87353326 29.01308277 28.73324562 28.27483098 32 27 C32.598125 28.134375 33.19625 29.26875 33.8125 30.4375 C35.65337056 33.09535634 36.4519459 33.89518965 39.67578125 34.51171875 C41.60797166 34.58593534 43.54382476 34.59730939 45.4765625 34.5390625 C48 35 48 35 49.703125 37.0625 C51.20138845 40.45615696 52.19939762 43.78191361 53.125 47.375 C53.62386719 49.27378906 53.62386719 49.27378906 54.1328125 51.2109375 C55 55 55 55 55.3125 58.77734375 C55.68134257 62.11059097 55.68134257 62.11059097 58.1796875 63.85546875 C59.51386719 64.51482422 59.51386719 64.51482422 60.875 65.1875 C65.21501014 67.38281125 68.03825605 69.20982424 69.671875 73.94921875 C70.77270862 80.82942885 70.50284609 86.83982239 67 93 C63.76469873 96.84738529 60.70683466 99.22383598 56 101 C54.41658454 100.96158091 52.83325346 100.91959869 51.25 100.875 C47.3303931 101.13904537 46.23231994 101.753611 43.484375 104.66796875 C42.19675959 106.36817762 40.9712934 108.10342395 39.74658203 109.84936523 C33.18031859 119.18501226 24.40105405 124.56116633 14 129 C13.0615625 129.41507813 12.123125 129.83015625 11.15625 130.2578125 C-1.68421285 135.08988141 -18.94914813 135.40100337 -31.64453125 130.125 C-32.81048828 129.568125 -32.81048828 129.568125 -34 129 C-34.70511719 128.71125 -35.41023438 128.4225 -36.13671875 128.125 C-47.45078948 123.14591976 -58.18705737 112.84232246 -64 102 C-64 101.34 -64 100.68 -64 100 C-64.66 100 -65.32 100 -66 100 C-66.71558513 98.33030137 -67.43030038 96.66022458 -68.140625 94.98828125 C-68.91887689 93.18768937 -69.73839283 91.40507149 -70.5625 89.625 C-76.54016949 74.55087695 -75.68708649 55.78770808 -69.3359375 40.96484375 C-61.78467806 24.47773339 -49.90799998 11.21578787 -33 4 C-22.07218083 0.24064341 -11.51944391 -0.84356072 0 0 Z M-45 19 C-45.75925781 19.57363281 -46.51851562 20.14726563 -47.30078125 20.73828125 C-58.05878485 29.41528933 -65.79239961 42.60641151 -67.39428711 56.39355469 C-67.56953269 59.93823825 -67.59542916 63.45139822 -67.5625 67 C-67.58634766 68.18078125 -67.61019531 69.3615625 -67.63476562 70.578125 C-67.6207399 79.0683665 -65.76938698 85.43393765 -62 93 C-61.62157959 93.80969238 -61.24315918 94.61938477 -60.85327148 95.45361328 C-54.55634675 108.62576778 -42.46113005 118.38021227 -29 123.375 C-27.3379368 123.93063159 -25.67189954 124.47470724 -24 125 C-23.01 125.33 -22.02 125.66 -21 126 C-2.64253373 127.66260625 12.30469509 124.1128674 27 113 C31.50459683 109.08295927 35.41660846 104.77785539 39 100 C37.74984611 97.15874115 36.4618587 95.38498137 34.375 93 C30.80674226 88.09100637 31.30494932 82.80753454 32 77 C32.9460704 72.28515737 34.4070798 69.61987112 37.75 66.125 C41.29299638 63.80842545 43.90829234 62.90017569 48 62 C48.60382413 55.35793453 47.35520176 48.80913922 44 43 C41.65544911 41.79710542 39.93665218 41.51561679 37.31640625 41.40625 C35 41 35 41 32.6171875 39 C29.38600296 36.53079629 27.57920663 36.53784883 23.5625 36.5 C18.22697915 36.22900853 15.01312284 35.80732167 11 32 C9.63178949 30.02369593 8.29048808 28.02790984 7 26 C6.34 26 5.68 26 5 26 C4.9175 24.88625 4.835 23.7725 4.75 22.625 C4.5025 21.42875 4.255 20.2325 4 19 C3.38125 18.690625 2.7625 18.38125 2.125 18.0625 C-0.66465421 16.66767289 -1.33910906 15.11839905 -2.75 12.375 C-3.17796875 11.55773437 -3.6059375 10.74046875 -4.046875 9.8984375 C-4.36140625 9.27195312 -4.6759375 8.64546875 -5 8 C-20.47675447 7.33273873 -32.57141159 8.90307306 -45 19 Z " fill="#1C1C1C" transform="translate(113,85)"/>
<path d="M0 0 C5.23007468 3.11409027 9.65240297 7.22283392 11.609375 13.09375 C12.56056498 20.62173929 11.1964483 26.03737978 6.609375 32.09375 C3.0871464 35.78328445 -0.12805381 37.90948185 -5.31640625 38.33203125 C-14.41045877 38.53132421 -14.41045877 38.53132421 -18.890625 36.53125 C-23.77821361 31.7658511 -28.63800823 25.9392426 -28.765625 18.84375 C-28.6018757 12.97767208 -26.73328962 8.54289938 -22.671875 4.296875 C-16.31806377 -1.35694007 -8.21108671 -3.11269954 0 0 Z " fill="#1B1B1B" transform="translate(428.390625,147.90625)"/>
<path d="M0 0 C7.53030185 5.55770719 7.53030185 5.55770719 8.5 10.75 C9.78335268 23.9409162 9.78335268 23.9409162 6 29.375 C2.15680381 33.56921411 -2.07557015 36.28947323 -7.765625 37.0546875 C-13.15274311 37.21959928 -19.00651042 37.02640931 -23.16015625 33.234375 C-24.72032021 31.47104473 -26.11826841 29.65511476 -27.5 27.75 C-28.11875 27.0075 -28.7375 26.265 -29.375 25.5 C-31.61217415 20.03135207 -31.25281499 14.05272822 -29.4375 8.5 C-23.278048 -0.242448 -23.278048 -0.242448 -18.63671875 -1.92578125 C-12.1867234 -2.90448255 -5.73670687 -3.51535045 0 0 Z " fill="#1D1D1D" transform="translate(217.5,149.25)"/>
<path d="M0 0 C1.42119141 -0.00386719 1.42119141 -0.00386719 2.87109375 -0.0078125 C5.26390459 0.11026525 7.27586153 0.44387365 9.5625 1.125 C9.5625 1.785 9.5625 2.445 9.5625 3.125 C10.14 3.351875 10.7175 3.57875 11.3125 3.8125 C15.12333774 6.03548868 17.18179664 8.98288992 18.5625 13.125 C18.5625 16.095 18.5625 19.065 18.5625 22.125 C8.6625 22.125 -1.2375 22.125 -11.4375 22.125 C-8.4375 30.125 -8.4375 30.125 -3.4375 32.125 C-0.75583112 32.47727372 -0.75583112 32.47727372 2.0625 32.4375 C3.47015625 32.46263672 3.47015625 32.46263672 4.90625 32.48828125 C7.94505053 32.07268059 9.30312173 31.14458576 11.5625 29.125 C12.8825 29.785 14.2025 30.445 15.5625 31.125 C15.5625 35.125 15.5625 35.125 13.453125 37.34765625 C7.829944 40.80515268 1.25242183 39.63885578 -5.07421875 38.7578125 C-9.92199725 37.55615603 -12.12782155 35.69398935 -14.9375 31.5625 C-18.51768626 25.50601825 -18.95485695 21.17276824 -18.4375 14.125 C-16.74855788 8.06467826 -13.54573711 4.58466968 -8.4375 1.125 C-5.36792902 0.10180967 -3.21309677 -0.00871939 0 0 Z " fill="#1C1C1C" transform="translate(308.4375,146.875)"/>
<path d="M0 0 C2.31 0 4.62 0 7 0 C7 11.22 7 22.44 7 34 C7.66 34 8.32 34 9 34 C9.31324219 33.18015625 9.31324219 33.18015625 9.6328125 32.34375 C11.50342321 29.13698878 14.11875282 26.92576191 16.875 24.5 C21.13344712 20.72832271 21.13344712 20.72832271 25.1171875 16.671875 C27 15 27 15 29.140625 14.609375 C32.0703125 14.8046875 32.0703125 14.8046875 35 15 C33.17744436 19.68341571 29.3630416 22.64871152 25.72460938 25.93359375 C24.03833601 27.48108289 24.03833601 27.48108289 22 30 C22.32858422 33.06220647 23.49026435 34.95140868 25.3984375 37.3125 C25.87796875 37.91320312 26.3575 38.51390625 26.8515625 39.1328125 C27.35429687 39.74898437 27.85703125 40.36515625 28.375 41 C29.36226395 42.22893794 30.34925062 43.4580987 31.3359375 44.6875 C32.02961426 45.54988281 32.02961426 45.54988281 32.73730469 46.4296875 C37 51.73085847 37 51.73085847 37 54 C33.78391131 54.72197909 31.18918033 54.92064057 28 54 C25.05851203 50.67559644 23.13910678 46.86950086 21 43 C19.42288651 40.88786573 17.75575648 38.96857544 16 37 C12.54233943 38.48185453 10.18904022 39.90515004 8 43 C7.36121626 46.65848872 7.12788234 50.29141213 7 54 C4.69 54 2.38 54 0 54 C0 36.18 0 18.36 0 0 Z " fill="#1C1C1C" transform="translate(232,132)"/>
<path d="M0 0 C1.9609375 1.2890625 1.9609375 1.2890625 3.9609375 3.2890625 C3.9609375 4.2790625 3.9609375 5.2690625 3.9609375 6.2890625 C3.3009375 6.2890625 2.6409375 6.2890625 1.9609375 6.2890625 C1.9609375 6.9490625 1.9609375 7.6090625 1.9609375 8.2890625 C-0.61493078 7.79370322 -2.23880228 7.16102418 -4.4765625 5.7265625 C-9.94515125 3.51993897 -15.22125552 3.63604335 -21.0390625 4.2890625 C-24.61305359 5.64282712 -24.61305359 5.64282712 -27.0390625 8.2890625 C-27.76222656 8.96582031 -27.76222656 8.96582031 -28.5 9.65625 C-32.63997871 14.25368492 -32.77207896 19.05666506 -32.5234375 25.05859375 C-31.58123648 31.3424667 -28.90610096 35.42202404 -24.4765625 39.8515625 C-18.79093751 42.2291875 -12.44360821 42.61672515 -6.625 40.34765625 C-4.55771099 39.27424221 -4.55771099 39.27424221 -2.7578125 38.06640625 C-0.50706024 37.04845239 0.67958356 37.4935904 2.9609375 38.2890625 C3.4559375 40.2690625 3.4559375 40.2690625 3.9609375 42.2890625 C2.69262057 43.10548504 1.42117819 43.91705355 0.1484375 44.7265625 C-0.91310547 45.40525391 -0.91310547 45.40525391 -1.99609375 46.09765625 C-8.22352086 49.72932981 -17.37453631 49.15374508 -24.3359375 47.86328125 C-30.3619974 45.61041941 -35.1607037 40.14814415 -38.4765625 34.7890625 C-41.51801368 28.09000409 -41.5176088 18.2441506 -38.9765625 11.3515625 C-29.89665153 -3.00055484 -15.65340825 -8.66256573 0 0 Z " fill="#1B1B1B" transform="translate(392.0390625,137.7109375)"/>
<path d="M0 0 C0 1.32 0 2.64 0 4 C-0.66 4.66 -1.32 5.32 -2 6 C-4.93453261 5.63318342 -5.86437246 5.13562754 -8 3 C-13.30538681 0.7262628 -18.58056073 -0.11242387 -24.11328125 1.6875 C-29.02695251 3.90836837 -31.95344435 6.56864633 -35 11 C-36.77295661 16.44469256 -37.19809248 23.00228314 -35.05859375 28.35546875 C-32.26793685 33.01822777 -28.91652716 36.54173642 -24 39 C-15.68625513 39.91327218 -15.68625513 39.91327218 -7.8125 37.8828125 C-6.06285189 36.38697528 -6.06285189 36.38697528 -4 34 C-3.34 34 -2.68 34 -2 34 C0 37 0 37 -0.1171875 39.015625 C-1.66930845 42.50446325 -4.50044175 43.46015472 -7.84375 45.01171875 C-14.94272139 47.23454024 -23.57041136 47.50641686 -30.5 44.5 C-36.446327 40.82079114 -41.46016024 35.04184553 -43.55859375 28.32421875 C-45.13747768 20.01062637 -44.82672494 12.56183304 -40.546875 5.15625 C-30.14999083 -9.33637642 -14.1827678 -8.44930848 0 0 Z " fill="#1B1B1B" transform="translate(139,140)"/>
<path d="M0 0 C4.28575173 2.26892739 7.5624855 4.7812249 10 9 C10.68902147 13.25025602 10.47562013 16.81094967 8.875 20.8125 C5.97870345 24.19151264 3.29234248 26.59974973 -1.21484375 27.38671875 C-5.11778806 27.57504718 -7.43241028 27.32081158 -10.875 25.375 C-14.66825688 21.1354776 -16.3001931 17.7751731 -16.1875 12.0625 C-15.61584827 7.91017258 -14.39866104 5.76949494 -11.375 2.875 C-7.50733078 -0.04647157 -4.89114775 -0.99634491 0 0 Z " fill="#F1F1F1" transform="translate(423,153)"/>
<path d="M0 0 C3.68437659 2.65275114 5.17516222 4.62755894 6 9 C6.51295346 14.09589833 6.57530263 17.88907079 4.1875 22.5 C1.78461021 25.24615976 0.13256041 26.81766829 -3.5234375 27.40625 C-11.07637941 27.6545659 -11.07637941 27.6545659 -13.796875 25.7265625 C-18.20513246 20.41072262 -18.53884432 15.93876519 -18.45703125 9.22265625 C-17.98112463 5.86690443 -17.56387007 4.54118396 -15.1875 2.1875 C-10.51899302 -0.95019308 -5.40079035 -1.12516466 0 0 Z " fill="#F5F5F5" transform="translate(213,153)"/>
<path d="M0 0 C4.33444327 0.05660654 6.80999498 1.47106712 10.125 4.3125 C12.69226209 8.51507287 12.80842485 12.51185713 12.125 17.3125 C10.05713013 21.30053474 7.90927277 23.92602167 4.125 26.3125 C0.72324717 26.97625665 -2.46408053 26.91507735 -5.875 26.3125 C-9.4532157 23.55429206 -12.55858534 20.43414356 -13.24609375 15.82421875 C-13.44753773 7.25692464 -13.44753773 7.25692464 -10.625 3.6875 C-6.70862286 0.30517429 -5.09965207 0.41126226 0 0 Z " fill="#F4F4F4" transform="translate(163.875,153.6875)"/>
<path d="M0 0 C2.31 0 4.62 0 7 0 C7 12.87 7 25.74 7 39 C4.69 39 2.38 39 0 39 C0 26.13 0 13.26 0 0 Z " fill="#202020" transform="translate(276,147)"/>
<path d="M0 0 C3.88759609 1.44949889 5.15218545 3.28942701 7.2734375 6.84765625 C7.6034375 8.49765625 7.9334375 10.14765625 8.2734375 11.84765625 C0.3534375 11.84765625 -7.5665625 11.84765625 -15.7265625 11.84765625 C-15.7265625 6.84765625 -15.7265625 6.84765625 -14.328125 4.79296875 C-9.63025086 0.46646806 -6.41369274 -1.17419913 0 0 Z " fill="#E1E1E1" transform="translate(312.7265625,152.15234375)"/>
<path d="M0 0 C3.3 0 6.6 0 10 0 C10.16748075 4.66287681 10.32805376 9.32592037 10.48217773 13.98925781 C10.53560756 15.57623729 10.59093771 17.16315395 10.64819336 18.75 C10.73007724 21.02850804 10.80516524 23.30715322 10.87890625 25.5859375 C10.90594131 26.29744965 10.93297638 27.00896179 10.96083069 27.74203491 C11.11387171 32.77225659 11.11387171 32.77225659 10 35 C9.34 35 8.68 35 8 35 C8 23.78 8 12.56 8 1 C5.69 1 3.38 1 1 1 C1 18.82 1 36.64 1 55 C0.67 55 0.34 55 0 55 C0 36.85 0 18.7 0 0 Z " fill="#D0D0D0" transform="translate(231,131)"/>
<path d="M0 0 C2.61580479 0.3269756 4.64078137 0.82039068 7 2 C7.04241723 4.33294775 7.04092937 6.66702567 7 9 C6 10 6 10 3.0625 10.1875 C0 10 0 10 -2 8 C-2.25 5 -2.25 5 -2 2 C-1.34 1.34 -0.68 0.68 0 0 Z " fill="#313131" transform="translate(277,130)"/>
<path d="M0 0 C0.33 0 0.66 0 1 0 C0.98952637 0.75506836 0.97905273 1.51013672 0.96826172 2.28808594 C0.92617582 5.77535549 0.90050888 9.2625713 0.875 12.75 C0.85824219 13.93722656 0.84148438 15.12445313 0.82421875 16.34765625 C0.78177481 24.11489715 1.45401588 31.39097051 3 39 C3.18675293 39.93682617 3.37350586 40.87365234 3.56591797 41.83886719 C3.70916504 42.55204102 3.85241211 43.26521484 4 44 C2 43 2 43 1 40.5 C0.67 39.345 0.34 38.19 0 37 C-0.37125 35.7625 -0.7425 34.525 -1.125 33.25 C-3.38581466 22.68158859 -2.91736406 10.36706156 0 0 Z " fill="#626262" transform="translate(41,134)"/>
<path d="M0 0 C3 0.125 3 0.125 4 1.125 C4.125 4.625 4.125 4.625 4 8.125 C3 9.125 3 9.125 0.5625 9.3125 C-2 9.125 -2 9.125 -4 7.125 C-4.1875 4.0625 -4.1875 4.0625 -4 1.125 C-3 0.125 -3 0.125 0 0 Z " fill="#181818" transform="translate(448,176.875)"/>
<path d="M0 0 C0.66 0.33 1.32 0.66 2 1 C0.90033225 2.29549899 -0.20491801 3.58626071 -1.3125 4.875 C-1.92738281 5.59429687 -2.54226563 6.31359375 -3.17578125 7.0546875 C-5 9 -5 9 -8 11 C-6.52670958 5.99081256 -3.72484762 3.48192278 0 0 Z " fill="#3E3E3E" transform="translate(362,138)"/>
<path d="M0 0 C0 3 0 3 -1.390625 4.7890625 C-2.31101563 5.69785156 -2.31101563 5.69785156 -3.25 6.625 C-3.85328125 7.23601562 -4.4565625 7.84703125 -5.078125 8.4765625 C-7.09363101 10.0742197 -8.48788161 10.58872398 -11 11 C-7.81316569 6.66590534 -4.13621084 3.3810038 0 0 Z " fill="#3B3B3B" transform="translate(252,154)"/>
<path d="M0 0 C0.66 0 1.32 0 2 0 C0.44499019 3.81684226 -2.03595495 6.19195732 -5 9 C-5.66 8.67 -6.32 8.34 -7 8 C-5.88200014 6.66079162 -4.75538103 5.32877444 -3.625 4 C-2.68527344 2.88625 -2.68527344 2.88625 -1.7265625 1.75 C-1.15679687 1.1725 -0.58703125 0.595 0 0 Z " fill="#C5C5C5" transform="translate(65,106)"/>
<path d="M0 0 C-1.45255699 3.82946843 -3.42895561 5.12050295 -7 7 C-3.86206897 0 -3.86206897 0 0 0 Z " fill="#C4C4C4" transform="translate(202,154)"/>
<path d="M0 0 C0.66 0.33 1.32 0.66 2 1 C0.38405168 3.04119788 -1.2856382 5.04072937 -3 7 C-3.66 7 -4.32 7 -5 7 C-3.70700306 4.11562221 -2.34058637 2.12780579 0 0 Z " fill="#C2C2C2" transform="translate(367,143)"/>
</svg>
