<?xml version="1.0" encoding="UTF-8"?>
<svg version="1.1" xmlns="http://www.w3.org/2000/svg" width="500" height="300">
<path d="M0 0 C0 0.66 0 1.32 0 2 C0.66 2 1.32 2 2 2 C2.18175781 2.54269531 2.36351563 3.08539063 2.55078125 3.64453125 C2.80214844 4.35996094 3.05351563 5.07539062 3.3125 5.8125 C3.55613281 6.52019531 3.79976563 7.22789063 4.05078125 7.95703125 C5.08178003 10.17601216 6.10889989 11.45892356 8 13 C8.66 13 9.32 13 10 13 C10 13.66 10 14.32 10 15 C10.66 15 11.32 15 12 15 C13.4783226 17.95664519 13.06032783 20.74229737 13 24 C14.485 24.495 14.485 24.495 16 25 C16 25.99 16 26.98 16 28 C21.96345767 29.0006709 26.28728907 29.0662997 32 27 C32.598125 27.763125 33.19625 28.52625 33.8125 29.3125 C34.8953125 30.6428125 34.8953125 30.6428125 36 32 C36.44730469 32.55171875 36.89460938 33.1034375 37.35546875 33.671875 C40.02384777 35.82686043 42.58041748 35.02486034 45.84375 34.71484375 C48 35 48 35 49.6484375 36.63671875 C51.18630377 39.32576236 52.17237825 41.92712325 53.125 44.875 C53.62386719 46.38707031 53.62386719 46.38707031 54.1328125 47.9296875 C54.98516707 50.9474834 55.53414783 53.90164361 56 57 C56.55045806 59.408254 57.21663744 61.64991232 58 64 C58.86625 64.226875 59.7325 64.45375 60.625 64.6875 C64.89716796 66.34889865 66.62902736 68.75750201 69.38671875 72.3203125 C69.91910156 72.87460938 70.45148438 73.42890625 71 74 C71.99 74 72.98 74 74 74 C74.33 73.01 74.66 72.02 75 71 C75.66 71 76.32 71 77 71 C77.185625 70.236875 77.37125 69.47375 77.5625 68.6875 C79.13712842 65.74362948 80.41508045 64.65262816 83.546875 63.5078125 C91.4076494 61.88058213 100.4468069 61.51132237 107.4921875 65.78125 C109.70880502 67.57292012 111.32735689 69.70785944 113 72 C113.99 72.33 114.98 72.66 116 73 C116.33 73.66 116.66 74.32 117 75 C117.03758423 73.78098999 117.03758423 73.78098999 117.07592773 72.53735352 C117.19149118 68.87889248 117.31439584 65.22071472 117.4375 61.5625 C117.47681641 60.28310547 117.51613281 59.00371094 117.55664062 57.68554688 C117.59853516 56.47060547 117.64042969 55.25566406 117.68359375 54.00390625 C117.73858032 52.31503296 117.73858032 52.31503296 117.79467773 50.59204102 C118 48 118 48 119 47 C120.8125 46.8671875 120.8125 46.8671875 123 46.875 C123.721875 46.87242187 124.44375 46.86984375 125.1875 46.8671875 C127 47 127 47 128 48 C128.15858842 50.14386657 128.25129298 52.29266838 128.31640625 54.44140625 C128.37924805 56.39916992 128.37924805 56.39916992 128.44335938 58.39648438 C128.48317608 59.7851533 128.52288825 61.17382522 128.5625 62.5625 C128.60567989 63.95509183 128.649294 65.34767028 128.69335938 66.74023438 C128.79985876 70.16004801 128.90186923 73.57993763 129 77 C129.66 77 130.32 77 131 77 C131 76.34 131 75.68 131 75 C131.66 75 132.32 75 133 75 C133.33 74.01 133.66 73.02 134 72 C135.48828125 70.75390625 135.48828125 70.75390625 137.3125 69.5625 C139.65260508 68.0087079 141.03065474 66.95949195 142.75 64.6875 C146.61540276 61.78844793 151.33807709 62.71063927 156 63 C156.14453125 65.3984375 156.14453125 65.3984375 156 68 C153.6875 69.625 153.6875 69.625 151 71 C148.59120835 73.06467856 148.03668447 73.88994659 147 77 C146.34 77 145.68 77 145 77 C143.12456646 80.86763446 143.12456646 80.86763446 144 85 C144.66 85 145.32 85 146 85 C147.3980016 86.74167699 148.72020603 88.54470641 150 90.375 C152.78064768 94.37211214 152.78064768 94.37211214 156 98 C156 98.99 156 99.98 156 101 C156.99 101.33 157.98 101.66 159 102 C158.67 102.66 158.34 103.32 158 104 C147.89867004 104.6269791 147.89867004 104.6269791 144.3125 102.125 C143 100 143 100 143 98 C142.34 98 141.68 98 141 98 C139.63242962 96.01860265 138.49654964 93.94527788 137.31640625 91.84765625 C136.05288044 89.69032541 136.05288044 89.69032541 133 89 C130.41977552 90.29011224 130.07834145 91.35736923 129 94 C128.58792592 96.32283358 128.58792592 96.32283358 128.4375 98.6875 C128.09964413 102.90035587 128.09964413 102.90035587 127 104 C123.99668982 104.14193337 121.00782866 104.04236378 118 104 C117.67 99.05 117.34 94.1 117 89 C116.01 90.98 116.01 90.98 115 93 C114.34 93 113.68 93 113 93 C113 93.66 113 94.32 113 95 C112.34 95 111.68 95 111 95 C110.79375 95.556875 110.5875 96.11375 110.375 96.6875 C108.15306098 100.42439745 105.24168024 103.36617028 101.01318359 104.56176758 C98.83188267 104.85774711 96.69977043 104.99097847 94.5 105.0625 C93.39978516 105.15047852 93.39978516 105.15047852 92.27734375 105.24023438 C86.9124216 105.50416167 84.09039995 104.51437843 80 101 C80 100.34 80 99.68 80 99 C79.01 98.67 78.02 98.34 77 98 C76.6278958 96.67696283 76.29369827 95.34262065 76 94 C75.34 93.67 74.68 93.34 74 93 C72.9805881 92.01979625 71.97753644 91.02196992 71 90 C71 90.99 71 91.98 71 93 C70.34 93 69.68 93 69 93 C68.7525 93.7425 68.505 94.485 68.25 95.25 C66.89534961 98.23023087 65.4898459 99.89919252 63 102 C62.34 102 61.68 102 61 102 C60.67 102.66 60.34 103.32 60 104 C57.35541621 105.32229189 55.32238699 105.09677194 52.375 105.0625 C50.87066406 105.04896484 50.87066406 105.04896484 49.3359375 105.03515625 C48.56507813 105.02355469 47.79421875 105.01195312 47 105 C46.01 106.98 45.02 108.96 44 111 C43.34 111 42.68 111 42 111 C42 111.99 42 112.98 42 114 C40.515 114.495 40.515 114.495 39 115 C37.31002677 116.64302953 35.64783606 118.31471312 34 120 C24.23014805 128.92328398 24.23014805 128.92328398 18 131 C17.67 131.66 17.34 132.32 17 133 C14.38412912 133.84026802 11.86078103 134.5229952 9.1875 135.125 C8.39811035 135.30385742 7.6087207 135.48271484 6.79541016 135.66699219 C-2.44546942 137.56617472 -11.61576057 137.35264365 -21 137 C-21 136.34 -21 135.68 -21 135 C-22.175625 134.87625 -23.35125 134.7525 -24.5625 134.625 C-40.92479106 132.4795947 -53.24329708 122.60934719 -63.11328125 109.81640625 C-72.42205561 95.9206996 -75.19615448 82.65976221 -75.125 66.1875 C-75.12886719 65.27291016 -75.13273437 64.35832031 -75.13671875 63.41601562 C-75.13052126 59.15523876 -75.09634629 55.1504538 -74 51 C-73.34 51 -72.68 51 -72 51 C-72.495 49.515 -72.495 49.515 -73 48 C-72.29296875 45.7734375 -72.29296875 45.7734375 -71.1875 43.375 C-70.83042969 42.57835937 -70.47335938 41.78171875 -70.10546875 40.9609375 C-69 39 -69 39 -67 38 C-66.896875 37.113125 -66.79375 36.22625 -66.6875 35.3125 C-65.82569907 31.16018643 -63.79253337 29.00845089 -61 26 C-60.45859375 25.35804687 -59.9171875 24.71609375 -59.359375 24.0546875 C-50.5196648 13.5824182 -39.23439058 3.79561836 -25.14453125 2.3515625 C-22.79091396 2.17984751 -22.79091396 2.17984751 -21 0 C-14.36629977 -1.65842506 -6.62669125 -1.76711767 0 0 Z M-47 24 C-47 24.66 -47 25.32 -47 26 C-47.5671875 26.20625 -48.134375 26.4125 -48.71875 26.625 C-51.81198406 28.48941505 -53.52142647 31.0600572 -55.5 34 C-55.89582275 34.58160889 -56.29164551 35.16321777 -56.69946289 35.76245117 C-66.00088054 49.80410692 -68.28409006 66.35963795 -65.3125 82.8046875 C-63.22434478 90.0610269 -59.88025717 96.54583891 -56 103 C-55.34 103 -54.68 103 -54 103 C-53.67 103.99 -53.34 104.98 -53 106 C-52.34 106 -51.68 106 -51 106 C-50.9175 106.598125 -50.835 107.19625 -50.75 107.8125 C-49.78423221 110.62932273 -48.51131433 111.47799132 -46 113 C-45.34 113 -44.68 113 -44 113 C-43.67 113.99 -43.34 114.98 -43 116 C-32.70510547 124.72828015 -18.27964531 127.95289058 -5 127 C3.16240291 126.14649395 10.71117958 123.80286283 18 120 C18.33 119.34 18.66 118.68 19 118 C20.71186116 117.01238779 22.42539746 116.02739689 24.15234375 115.06640625 C28.75918025 112.40749216 31.42430797 110.15681027 33 105 C33.66 105 34.32 105 35 105 C35.93423645 101.98968256 36.04449911 101.13349732 35 98 C33.70644173 96.62804426 32.37701298 95.28817344 31 94 C29.515 94.495 29.515 94.495 28 95 C28.66 95 29.32 95 30 95 C30 95.66 30 96.32 30 97 C29.34 97 28.68 97 28 97 C27.505 98.485 27.505 98.485 27 100 C25.2578125 100.9140625 25.2578125 100.9140625 23.125 101.625 C22.42632812 101.86476563 21.72765625 102.10453125 21.0078125 102.3515625 C20.34523438 102.56554687 19.68265625 102.77953125 19 103 C17.515 103.495 17.515 103.495 16 104 C8.40048063 105.37340712 0.76391363 105.87971069 -6.125 101.9375 C-13.44629065 96.83743924 -18.15322751 90.77586286 -20 82 C-20.46182158 78.99130099 -20.75885138 76.03847259 -21 73 C-20.34 73 -19.68 73 -19 73 C-18.664061 71.5422647 -18.33133376 70.08378894 -18 68.625 C-17.7215625 67.40683594 -17.7215625 67.40683594 -17.4375 66.1640625 C-16.93394761 64.04125049 -16.93394761 64.04125049 -17 62 C-16.34 62 -15.68 62 -15 62 C-14.9071875 61.071875 -14.9071875 61.071875 -14.8125 60.125 C-14.544375 59.42375 -14.27625 58.7225 -14 58 C-12.35448038 57.28272222 -10.68577711 56.61674772 -9 56 C-8.34 55.01 -7.68 54.02 -7 53 C0.27408286 49.34792947 9.06011748 49.04044074 17 50 C20.95774933 51.60373255 22.6112523 52.41687845 25 56 C25.99 56 26.98 56 28 56 C28.25 58.3125 28.25 58.3125 28 61 C26.25 62.8125 26.25 62.8125 24 64 C22.68 64 21.36 64 20 64 C19 63 18 62 17 61 C10.94284716 58.11564151 5.2168637 58.99473009 -1 60.9375 C-3.16031636 61.83724096 -3.16031636 61.83724096 -4 64 C-4.639375 64.495 -5.27875 64.99 -5.9375 65.5 C-9.49512545 69.81227327 -10.25917463 75.03540603 -9.77734375 80.546875 C-8.98608508 84.61620531 -8.32469964 87.31498941 -5 90 C-4.34 90 -3.68 90 -3 90 C-2.67 90.99 -2.34 91.98 -2 93 C3.62805148 96.0391478 8.35020541 97.01854733 14.6875 95.25 C17.29076675 93.84282878 18.95186428 92.11640691 21 90 C21.99 89.67 22.98 89.34 24 89 C24.33 89.99 24.66 90.98 25 92 C29.08874483 89.27417012 29.22290632 86.10772548 30.1875 81.5625 C30.36474609 80.78583984 30.54199219 80.00917969 30.72460938 79.20898438 C31.43129744 76.04116643 32 73.26009262 32 70 C32.598125 69.731875 33.19625 69.46375 33.8125 69.1875 C36.01877425 68.1537126 36.01877425 68.1537126 37.3125 66.5 C39.85896287 64.23647745 42.74445256 63.7985305 46 63 C46.34937311 57.41003031 45.52472638 53.03787145 43 48 C40.16128801 45.16128801 36.7148569 44.29573187 33 43 C32.27039063 42.72800781 31.54078125 42.45601562 30.7890625 42.17578125 C26.88871741 40.77302556 23.39363355 39.85798299 19.25 39.5625 C15.0844962 39.22142216 13.07776582 37.89672077 10 35 C8.515 34.505 8.515 34.505 7 34 C5.5 31.3125 5.5 31.3125 4 28 C3.443125 26.88625 2.88625 25.7725 2.3125 24.625 C1.879375 23.75875 1.44625 22.8925 1 22 C0.34 22 -0.32 22 -1 22 C-1 21.34 -1 20.68 -1 20 C-1.66 19.67 -2.32 19.34 -3 19 C-3.495 17.515 -3.495 17.515 -4 16 C-4.66 16 -5.32 16 -6 16 C-6.495 13.525 -6.495 13.525 -7 11 C-21.93576294 10.03119376 -35.33862636 14.7680792 -47 24 Z M44 74 C44 74.99 44 75.98 44 77 C43.360625 77.103125 42.72125 77.20625 42.0625 77.3125 C41.381875 77.539375 40.70125 77.76625 40 78 C38.50915168 82.47254497 38.50915168 86.52745503 40 91 C43.24967445 94.68296438 45.36303741 95.84556957 50.3125 96.3125 C54.65530882 95.94446535 56.64635622 94.71485449 60 92 C61.29376578 89.41246844 61.16832397 87.45041015 61.1875 84.5625 C61.20876953 83.11037109 61.20876953 83.11037109 61.23046875 81.62890625 C61.19149451 78.76733273 61.19149451 78.76733273 59 76 C55.61682195 73.24625042 53.6289712 72.06289712 49.25 71.625 C45.91725994 71.66847692 45.91725994 71.66847692 44 74 Z M88 73 C88 73.66 88 74.32 88 75 C86.68 75.33 85.36 75.66 84 76 C82.80057469 80.79770123 81.45913624 86.33223587 84.046875 90.8125 C85.82370094 92.9864988 87.4719741 94.73598705 90 96 C96.00265205 96.66895599 96.00265205 96.66895599 101 93.625 C103.20201441 91.28487188 103.20201441 91.28487188 103 89 C103.66 89 104.32 89 105 89 C105.23696149 83.07596284 104.87219539 78.56560109 101.3125 73.6875 C97.0719396 70.593037 92.42550402 69.99065727 88 73 Z M117 82 C118 85 118 85 118 85 Z M71 84 C72 86 72 86 72 86 Z M114 89 C115 91 115 91 115 91 Z " fill="#050505" transform="translate(113,83)"/>
<path d="M0 0 C2.1171308 1.1881513 4.08684089 2.41236614 6.01953125 3.87890625 C6.01953125 4.53890625 6.01953125 5.19890625 6.01953125 5.87890625 C6.67953125 5.87890625 7.33953125 5.87890625 8.01953125 5.87890625 C8.51453125 8.35390625 8.51453125 8.35390625 9.01953125 10.87890625 C7.36953125 12.19890625 5.71953125 13.51890625 4.01953125 14.87890625 C2.88515625 14.23953125 1.75078125 13.60015625 0.58203125 12.94140625 C-5.22999166 10.05593198 -10.35026493 9.44053895 -16.73046875 10.50390625 C-20.40270884 12.05754629 -22.37756837 13.89322641 -24.98046875 16.87890625 C-25.31046875 17.20890625 -25.64046875 17.53890625 -25.98046875 17.87890625 C-26.73516901 23.16180808 -27.02463085 27.69832581 -26.48046875 33.00390625 C-26.38765625 33.91398437 -26.29484375 34.8240625 -26.19921875 35.76171875 C-26.12703125 36.46039063 -26.05484375 37.1590625 -25.98046875 37.87890625 C-25.32046875 37.87890625 -24.66046875 37.87890625 -23.98046875 37.87890625 C-23.36171875 38.66265625 -22.74296875 39.44640625 -22.10546875 40.25390625 C-19.96543035 42.89748309 -19.07804642 43.72133397 -15.98046875 44.87890625 C-12.93031947 45.12001384 -12.93031947 45.12001384 -9.73046875 45.00390625 C-8.11398437 44.97683594 -8.11398437 44.97683594 -6.46484375 44.94921875 C-5.645 44.92601562 -4.82515625 44.9028125 -3.98046875 44.87890625 C-3.48546875 43.88890625 -3.48546875 43.88890625 -2.98046875 42.87890625 C-1.99046875 42.87890625 -1.00046875 42.87890625 0.01953125 42.87890625 C0.01953125 42.21890625 0.01953125 41.55890625 0.01953125 40.87890625 C2.98953125 40.38390625 2.98953125 40.38390625 6.01953125 39.87890625 C6.01953125 40.53890625 6.01953125 41.19890625 6.01953125 41.87890625 C7.00953125 42.20890625 7.99953125 42.53890625 9.01953125 42.87890625 C9.51453125 45.35390625 9.51453125 45.35390625 10.01953125 47.87890625 C8.56415557 48.71739429 7.10512752 49.54954559 5.64453125 50.37890625 C4.83242188 50.84296875 4.0203125 51.30703125 3.18359375 51.78515625 C1.01953125 52.87890625 1.01953125 52.87890625 -0.98046875 52.87890625 C-1.47546875 53.86890625 -1.47546875 53.86890625 -1.98046875 54.87890625 C-4.50159967 54.93338447 -7.02152725 54.97280477 -9.54296875 55.00390625 C-10.24744141 55.02066406 -10.95191406 55.03742188 -11.67773438 55.0546875 C-16.49938697 55.09912669 -20.40344313 54.40658629 -24.98046875 52.87890625 C-24.98046875 52.21890625 -24.98046875 51.55890625 -24.98046875 50.87890625 C-25.87765625 50.69328125 -25.87765625 50.69328125 -26.79296875 50.50390625 C-28.98046875 49.87890625 -28.98046875 49.87890625 -31.98046875 47.87890625 C-31.98046875 47.21890625 -31.98046875 46.55890625 -31.98046875 45.87890625 C-32.64046875 45.87890625 -33.30046875 45.87890625 -33.98046875 45.87890625 C-38.9586631 40.9007119 -39.07563223 34.20599211 -39.11450195 27.60253906 C-39.10133036 24.36019062 -39.05128084 21.12052644 -38.98046875 17.87890625 C-38.32046875 17.87890625 -37.66046875 17.87890625 -36.98046875 17.87890625 C-37.08359375 17.15703125 -37.18671875 16.43515625 -37.29296875 15.69140625 C-36.85811241 11.77769923 -34.87287719 10.26364023 -31.98046875 7.87890625 C-31.26761719 7.28464844 -30.55476563 6.69039062 -29.8203125 6.078125 C-21.0351412 -1.00574435 -11.21004941 -4.21662409 0 0 Z " fill="#050505" transform="translate(388.98046875,133.12109375)"/>
<path d="M0 0 C1.20269531 -0.02578125 2.40539062 -0.0515625 3.64453125 -0.078125 C8.80257155 0.39957664 12.90274195 2.38230025 16.5 6.125 C20.56602981 11.04033108 20.16912391 17.13994901 20.1875 23.25 C14.56497386 26.15410531 10.72556753 26.50665898 4.5 25.8125 C-1.94420273 24.93263191 -1.94420273 24.93263191 -7.8125 27.25 C-7.13962684 30.29519975 -7.13962684 30.29519975 -5.0390625 31.42578125 C-2.59621762 32.33006243 -0.78345108 32.48525161 1.8125 32.4375 C2.97652344 32.42783203 2.97652344 32.42783203 4.1640625 32.41796875 C6.2562268 32.37050633 6.2562268 32.37050633 8.1875 31.25 C8.5175 30.26 8.8475 29.27 9.1875 28.25 C11.4975 28.91 13.8075 29.57 16.1875 30.25 C16.6825 32.725 16.6825 32.725 17.1875 35.25 C11.4375 40.25 11.4375 40.25 9.1875 40.25 C8.8575 40.91 8.5275 41.57 8.1875 42.25 C5.72909395 42.27691685 3.27098118 42.29679802 0.8125 42.3125 C0.11382812 42.32087891 -0.58484375 42.32925781 -1.3046875 42.33789062 C-6.5859375 42.36328125 -6.5859375 42.36328125 -8.8125 41.25 C-8.8125 40.59 -8.8125 39.93 -8.8125 39.25 C-9.699375 39.085 -10.58625 38.92 -11.5 38.75 C-16.09439101 36.66952105 -17.77504501 33.76854937 -19.8125 29.25 C-20.625 25.6875 -20.625 25.6875 -20.8125 22.25 C-20.895 21.13625 -20.9775 20.0225 -21.0625 18.875 C-20.75626653 14.43461463 -19.96287593 10.18968128 -17.8125 6.25 C-15.83203125 5.0859375 -15.83203125 5.0859375 -13.8125 4.25 C-13.131875 3.734375 -12.45125 3.21875 -11.75 2.6875 C-8.02270153 -0.07791499 -4.49992601 0.05750704 0 0 Z M-5.625 9.9375 C-7.75331617 12.18743424 -8.48902831 13.23093088 -8.8125 16.25 C-5.41302755 17.26819948 -2.22857017 17.44779749 1.3125 17.5 C2.89417969 17.53867188 2.89417969 17.53867188 4.5078125 17.578125 C5.39210938 17.46984375 6.27640625 17.3615625 7.1875 17.25 C7.8475 16.26 8.5075 15.27 9.1875 14.25 C2.58676984 8.09505213 2.58676984 8.09505213 -5.625 9.9375 Z " fill="#050505" transform="translate(308.8125,145.75)"/>
<path d="M0 0 C0.75410156 0.00322266 1.50820313 0.00644531 2.28515625 0.00976562 C3.06246094 0.01814453 3.83976562 0.02652344 4.640625 0.03515625 C5.43339844 0.03966797 6.22617187 0.04417969 7.04296875 0.04882812 C8.99222008 0.0605706 10.94143238 0.07850479 12.890625 0.09765625 C12.890625 0.75765625 12.890625 1.41765625 12.890625 2.09765625 C13.4475 2.15953125 14.004375 2.22140625 14.578125 2.28515625 C19.30404634 3.9456151 21.49799156 7.32592846 23.703125 11.66015625 C25.75307836 17.72894474 25.91308874 25.03026502 23.890625 31.09765625 C22.26959532 32.80874314 20.59559037 34.47018931 18.890625 36.09765625 C18.106875 37.00515625 17.323125 37.91265625 16.515625 38.84765625 C13.19607205 41.69298735 11.22185614 41.87742416 6.890625 42.09765625 C5.59125 42.18015625 4.291875 42.26265625 2.953125 42.34765625 C-2.27317251 42.23645843 -6.87816263 41.09214857 -10.83984375 37.55078125 C-16.03955657 31.74764496 -18.65276593 26.57744252 -18.40234375 18.70703125 C-17.9490443 14.66964417 -17.08955826 10.67502436 -15.109375 7.09765625 C-14.119375 6.76765625 -13.129375 6.43765625 -12.109375 6.09765625 C-12.109375 5.43765625 -12.109375 4.77765625 -12.109375 4.09765625 C-8.33964113 0.73182244 -4.95260329 -0.03751972 0 0 Z M-8.109375 17.09765625 C-9.13369954 21.15784119 -8.4825819 24.28338665 -6.734375 28.09765625 C-6.198125 28.75765625 -5.661875 29.41765625 -5.109375 30.09765625 C-4.449375 30.09765625 -3.789375 30.09765625 -3.109375 30.09765625 C-3.109375 30.75765625 -3.109375 31.41765625 -3.109375 32.09765625 C0.11922347 33.71195548 3.40056153 33.69336282 6.890625 33.09765625 C9.91570645 31.3616352 12.30852569 29.26185488 13.890625 26.09765625 C14.01210805 24.47599873 14.06606152 22.84881298 14.078125 21.22265625 C14.09939453 19.92714844 14.09939453 19.92714844 14.12109375 18.60546875 C13.87503167 15.9279797 13.31057621 14.3636411 11.890625 12.09765625 C8.56509332 9.3589831 5.31205721 8.3184736 0.9609375 8.4921875 C-3.41668646 9.77243602 -5.94596868 13.24941531 -8.109375 17.09765625 Z " fill="#050505" transform="translate(417.109375,145.90234375)"/>
<path d="M0 0 C0.721875 0.00257813 1.44375 0.00515625 2.1875 0.0078125 C2.909375 0.00523437 3.63125 0.00265625 4.375 0 C6.1875 0.1328125 6.1875 0.1328125 7.1875 1.1328125 C9.23220279 14.36027254 8.14178044 27.85808996 7.1875 41.1328125 C5.72926788 41.1598168 4.27089325 41.17921037 2.8125 41.1953125 C1.59433594 41.21271484 1.59433594 41.21271484 0.3515625 41.23046875 C-1.8125 41.1328125 -1.8125 41.1328125 -3.8125 40.1328125 C-3.69456661 34.59676875 -3.57034219 29.06091637 -3.44018555 23.52514648 C-3.39677067 21.64042032 -3.35510057 19.75565314 -3.31518555 17.87084961 C-3.25764107 15.16768001 -3.19390196 12.46471814 -3.12890625 9.76171875 C-3.11219376 8.91380264 -3.09548126 8.06588654 -3.07826233 7.192276 C-2.89995156 0.21249645 -2.89995156 0.21249645 0 0 Z " fill="#060606" transform="translate(276.8125,145.8671875)"/>
<path d="M0 0 C5.75 1.75 5.75 1.75 8 4 C8.33333333 9.33333333 8.33333333 9.33333333 7 12 C6.34 12 5.68 12 5 12 C4.67 12.66 4.34 13.32 4 14 C1.69 13.34 -0.62 12.68 -3 12 C-3 10.68 -3 9.36 -3 8 C-3.66 8 -4.32 8 -5 8 C-5 7.34 -5 6.68 -5 6 C-4.34 6 -3.68 6 -3 6 C-2.87625 5.38125 -2.7525 4.7625 -2.625 4.125 C-2 2 -2 2 0 0 Z " fill="#050505" transform="translate(277,128)"/>
<path d="M0 0 C1.875 1.5 1.875 1.5 3 4 C2.94182453 6.77126779 2.50320133 9.25526545 2 12 C-4.46148093 13.34106208 -4.46148093 13.34106208 -6.875 11.8125 C-8.15951846 9.74299804 -8.78493884 8.43735984 -9 6 C-8.1875 3.3125 -8.1875 3.3125 -7 1 C-4.4254716 -0.2872642 -2.85291355 -0.34791629 0 0 Z " fill="#050505" transform="translate(451,175)"/>
<path d="M0 0 C2.4375 0.9375 2.4375 0.9375 5 3 C5.7524935 5.98877701 5.92909865 8.92545953 6 12 C5.01 12 4.02 12 3 12 C2.49440092 10.56445975 1.9957251 9.1264798 1.5 7.6875 C1.2215625 6.88699219 0.943125 6.08648437 0.65625 5.26171875 C0 3 0 3 0 0 Z " fill="#0B0B0B" transform="translate(41,160)"/>
<path d="M0 0 C0.66 0 1.32 0 2 0 C2 0.66 2 1.32 2 2 C1.34 2 0.68 2 0 2 C0 1.34 0 0.68 0 0 Z " fill="#000000" transform="translate(277,143)"/>
<path d="" fill="#000000" transform="translate(0,0)"/>
<path d="" fill="#000000" transform="translate(0,0)"/>
<path d="" fill="#000000" transform="translate(0,0)"/>
<path d="" fill="#000000" transform="translate(0,0)"/>
<path d="" fill="#000000" transform="translate(0,0)"/>
<path d="" fill="#000000" transform="translate(0,0)"/>
<path d="" fill="#000000" transform="translate(0,0)"/>
<path d="" fill="#000000" transform="translate(0,0)"/>
</svg>
